 <svg version="1.0" xmlns="http://www.w3.org/2000/svg" width="700.000000pt" height="700.000000pt" viewBox="0 0 700.000000 700.000000" preserveAspectRatio="xMidYMid meet">
<metadata>
Created by potrace 1.12, written by Peter Selinger 2001-2015
</metadata>
<g transform="translate(0.000000,700.000000) scale(0.100000,-0.100000)" fill="#000000" stroke="none">
<path d="M3305 6742 c-100 -76 -349 -263 -555 -416 -206 -154 -571 -426 -810
-605 -1070 -799 -1432 -1069 -1677 -1251 l-262 -195 -1 -2082 0 -2083 3500 0
3500 0 0 2083 -1 2082 -262 195 c-144 107 -527 393 -852 635 -324 243 -705
527 -845 631 -305 227 -1151 859 -1373 1026 -87 65 -164 118 -170 117 -7 0
-93 -62 -192 -137z m502 -1182 c157 -31 261 -72 375 -146 296 -191 438 -578
347 -945 -38 -153 -120 -292 -244 -414 -139 -138 -283 -198 -475 -199 -129 -1
-172 16 -208 82 l-24 42 -36 -29 c-137 -107 -324 -129 -481 -55 -66 32 -152
116 -186 184 -76 150 -74 389 5 580 125 303 351 470 604 445 89 -9 165 -43
220 -99 24 -25 46 -46 49 -46 2 0 7 19 11 41 13 81 9 79 171 79 109 0 145 -3
145 -12 0 -17 -20 -117 -70 -358 -122 -580 -122 -584 -98 -608 44 -44 182 33
278 154 174 219 209 500 91 739 -47 94 -155 211 -244 264 -195 115 -524 144
-797 69 -41 -11 -120 -43 -175 -71 -85 -44 -115 -66 -200 -152 -88 -88 -106
-113 -152 -205 -60 -121 -88 -205 -108 -328 -70 -425 126 -798 487 -931 199
-74 459 -99 693 -67 242 33 406 106 535 237 l58 59 116 0 c76 0 116 -4 116
-11 0 -23 -96 -157 -151 -211 -136 -133 -310 -219 -544 -270 -134 -29 -424
-36 -575 -14 -557 81 -861 359 -945 865 -14 81 -16 135 -12 235 15 319 132
594 337 798 161 159 343 251 595 298 133 26 365 26 492 0z m-3407 -1475 c58
-39 386 -260 730 -490 344 -230 720 -482 835 -560 116 -78 353 -237 527 -353
174 -117 320 -216 323 -222 3 -5 -52 -53 -122 -108 -180 -139 -668 -516 -997
-771 -153 -119 -320 -248 -370 -286 -50 -39 -253 -196 -451 -350 -575 -445
-614 -475 -620 -475 -3 0 -5 835 -5 1855 l0 1856 23 -12 c12 -7 69 -44 127
-84z m6346 -3613 c-5 -4 -24 11 -621 473 -198 154 -401 311 -451 350 -50 38
-217 167 -370 286 -329 255 -817 632 -997 771 -70 55 -125 103 -122 108 3 5
142 100 308 211 166 111 410 275 542 364 132 89 508 341 835 560 327 219 658
441 735 493 l140 95 3 -1853 c1 -1019 0 -1855 -2 -1858z m-3108 2111 c70 -53
226 -174 347 -268 274 -212 658 -510 1050 -813 522 -404 842 -652 1074 -832
124 -96 273 -211 330 -255 l105 -80 -1522 -3 c-837 -1 -2207 -1 -3044 0
l-1521 3 84 65 c46 35 192 148 324 250 446 345 769 595 1040 805 149 115 378
293 510 395 132 102 371 287 530 410 160 123 346 268 415 322 69 53 131 97
138 98 8 0 71 -44 140 -97z"></path>
<path d="M3385 4884 c-100 -35 -188 -154 -236 -319 -19 -65 -24 -104 -24 -210
0 -121 2 -134 26 -180 15 -30 42 -62 68 -80 38 -26 51 -30 109 -29 159 2 261
117 333 374 27 96 31 267 8 320 -53 118 -165 167 -284 124z"></path>
</g>
</svg>