 <svg version="1.0" xmlns="http://www.w3.org/2000/svg" width="700.000000pt" height="700.000000pt" viewBox="0 0 700.000000 700.000000" preserveAspectRatio="xMidYMid meet">
<metadata>
Created by potrace 1.12, written by Peter Selinger 2001-2015
</metadata>
<g transform="translate(0.000000,700.000000) scale(0.100000,-0.100000)" fill="#000000" stroke="none">
<path d="M1027 6689 c-86 -20 -148 -69 -183 -144 -27 -57 -27 -245 0 -295 26
-49 74 -98 119 -121 l37 -19 -2 -1998 -3 -1997 -48 -7 c-101 -14 -186 -93
-207 -192 -7 -35 -10 -265 -8 -706 3 -637 4 -656 23 -690 12 -21 39 -44 65
-58 l44 -22 2637 0 2636 0 44 23 c24 13 53 39 64 58 19 33 20 53 23 689 2 448
-1 671 -8 707 -21 98 -110 179 -214 192 l-41 6 -3 1997 -2 1998 37 19 c51 26
97 76 122 131 31 68 29 217 -3 285 -29 62 -77 109 -136 132 -43 17 -165 18
-2500 20 -1410 0 -2471 -3 -2493 -8z m4953 -156 c38 -26 48 -44 55 -93 9 -66
-8 -130 -45 -162 l-30 -28 -2460 0 -2460 0 -32 29 c-32 28 -33 33 -37 115 l-3
86 35 35 35 35 2459 0 c2300 0 2460 -1 2483 -17z m-130 -2428 l0 -1995 -699 0
-699 0 -30 25 c-17 14 -50 34 -73 45 -43 19 -69 20 -849 20 l-805 0 -50 -24
c-27 -13 -59 -33 -69 -45 l-19 -21 -704 0 -703 0 0 1995 0 1995 2350 0 2350 0
0 -1995z m-1539 -2065 c36 -20 51 -67 47 -146 -3 -68 -6 -77 -36 -107 l-32
-32 -778 -2 c-604 -2 -782 0 -801 10 -42 21 -64 62 -69 127 -5 75 1 100 34
133 l27 27 794 0 c526 0 801 -3 814 -10z m-1811 -165 c3 -49 12 -103 20 -120
24 -53 90 -114 142 -131 l48 -16 -2 -509 -3 -509 -905 0 c-498 0 -910 0 -917
0 -9 0 -12 156 -11 646 0 547 2 650 15 675 30 61 -5 58 838 56 l770 -2 5 -90z
m3571 80 c16 -9 34 -28 40 -42 9 -24 15 -1311 6 -1320 -2 -2 -413 -3 -913 -3
l-909 0 -3 505 -2 506 53 24 c63 27 109 71 139 128 16 32 20 59 20 121 0 45 2
84 4 88 3 5 349 8 770 8 671 0 769 -2 795 -15z m-2646 -865 l0 -505 -285 0
-285 0 -3 495 c-1 272 0 501 3 508 3 10 66 12 287 10 l283 -3 0 -505z m722 3
l-2 -508 -285 0 -285 0 -3 495 c-1 272 0 501 3 508 3 9 71 12 289 12 l285 0
-2 -507z"></path>
<path d="M1022 6389 c-32 -12 -19 -31 14 -19 16 6 927 10 2464 10 1537 0 2448
-4 2464 -10 16 -6 27 -6 31 0 4 6 -6 15 -20 20 -35 13 -4920 13 -4953 -1z"></path>
<path d="M1556 5678 c-14 -19 -16 -71 -16 -361 l0 -338 25 -24 24 -25 291 0
292 0 29 29 29 29 0 330 c0 318 -1 330 -21 356 l-20 26 -309 0 c-308 0 -309 0
-324 -22z m522 -360 l-3 -243 -184 -3 c-127 -2 -188 1 -197 9 -11 9 -14 58
-14 239 0 124 3 230 7 233 3 4 93 7 200 7 l193 0 -2 -242z"></path>
<path d="M2636 5678 c-14 -19 -16 -71 -16 -361 l0 -338 25 -24 24 -25 291 0
291 0 24 25 25 24 0 338 c0 290 -2 342 -16 361 -15 22 -16 22 -324 22 -308 0
-309 0 -324 -22z m519 -358 l0 -244 -195 -1 -195 0 0 240 0 240 180 5 c99 3
187 6 195 5 13 0 15 -34 15 -245z"></path>
<path d="M3716 5678 c-14 -19 -16 -71 -16 -361 l0 -338 25 -24 24 -25 291 0
291 0 24 25 25 24 0 338 c0 290 -2 342 -16 361 -15 22 -16 22 -324 22 -308 0
-309 0 -324 -22z m519 -358 l0 -245 -195 0 -195 0 0 240 0 240 180 5 c99 3
187 6 195 5 13 0 15 -34 15 -245z"></path>
<path d="M4796 5678 c-14 -19 -16 -71 -16 -364 l0 -343 26 -20 c26 -20 38 -21
316 -21 l289 0 24 25 25 24 0 338 c0 290 -2 342 -16 361 -15 22 -16 22 -324
22 -308 0 -309 0 -324 -22z m519 -363 l0 -240 -195 0 -195 0 -3 230 c-1 126 0
235 3 243 3 10 47 12 197 10 l193 -3 0 -240z"></path>
<path d="M1580 4438 c-37 -14 -40 -38 -40 -380 0 -286 2 -337 16 -356 15 -22
16 -22 324 -22 l309 0 20 26 c20 26 21 38 21 355 0 326 0 328 -22 354 l-23 26
-293 2 c-161 1 -302 -1 -312 -5z m495 -376 l0 -243 -187 -1 c-102 0 -191 3
-197 6 -12 8 -16 468 -4 480 4 4 93 6 198 4 l190 -3 0 -243z"></path>
<path d="M2643 4427 l-23 -18 0 -343 c0 -293 2 -345 16 -364 15 -22 16 -22
324 -22 308 0 309 0 324 22 14 19 16 71 16 364 0 323 -1 342 -19 358 -17 16
-50 18 -317 19 -274 2 -299 1 -321 -16z m512 -366 l0 -244 -188 1 c-104 1
-192 4 -198 7 -11 7 -13 468 -2 479 4 4 93 6 198 4 l190 -3 0 -244z"></path>
<path d="M3723 4427 l-23 -18 0 -343 c0 -293 2 -345 16 -364 15 -22 16 -22
324 -22 308 0 309 0 324 22 14 19 16 71 16 364 0 323 -1 342 -19 358 -17 16
-50 18 -317 19 -274 2 -299 1 -321 -16z m512 -366 l0 -243 -185 0 c-102 1
-191 1 -197 1 -10 1 -13 56 -13 239 0 131 3 242 6 245 4 3 93 5 198 4 l191 -2
0 -244z"></path>
<path d="M4803 4423 c-23 -22 -23 -23 -23 -366 0 -320 1 -345 18 -360 16 -15
54 -17 325 -17 305 0 306 0 321 22 14 19 16 71 16 359 0 307 -2 339 -18 359
-17 21 -22 21 -317 23 -297 2 -300 2 -322 -20z m512 -362 l0 -244 -122 1 c-68
0 -157 1 -198 1 l-75 1 0 238 c0 131 3 242 7 246 4 4 93 6 198 4 l190 -3 0
-244z"></path>
<path d="M1561 3164 c-20 -26 -21 -38 -21 -364 l0 -337 23 -21 c23 -22 29 -22
324 -22 l302 0 20 26 c20 26 21 38 21 357 l0 331 -27 28 -27 28 -297 0 -298 0
-20 -26z m514 -359 l0 -240 -195 0 -195 0 -3 234 c-2 181 1 236 10 243 7 4 96
7 198 5 l185 -2 0 -240z"></path>
<path d="M2645 3165 l-25 -24 0 -338 c0 -290 2 -342 16 -361 15 -22 16 -22
324 -22 308 0 309 0 324 22 14 19 16 71 16 363 l0 342 -23 21 c-23 22 -29 22
-316 22 l-292 0 -24 -25z m510 -360 l0 -240 -195 0 -195 0 -3 230 c-1 126 0
235 3 243 3 10 47 12 197 10 l193 -3 0 -240z"></path>
<path d="M3722 3167 c-22 -23 -22 -28 -22 -363 0 -291 2 -343 16 -362 15 -22
16 -22 324 -22 308 0 309 0 324 22 14 19 16 71 16 361 l0 338 -25 24 -24 25
-294 0 -294 0 -21 -23z m513 -362 l0 -240 -195 0 -195 0 -3 230 c-1 126 0 235
3 243 3 10 47 12 197 10 l193 -3 0 -240z"></path>
<path d="M4802 3167 c-22 -23 -22 -28 -22 -363 0 -291 2 -343 16 -362 15 -22
16 -22 318 -22 l303 0 21 23 c22 23 22 28 22 361 l0 337 -25 24 -24 25 -294 0
-294 0 -21 -23z m513 -362 l0 -240 -195 0 -195 0 -3 230 c-1 126 0 235 3 243
3 10 47 12 197 10 l193 -3 0 -240z"></path>
<path d="M2703 1893 c-13 -2 -23 -7 -23 -11 0 -4 357 -7 792 -7 436 0 806 -4
821 -8 22 -6 28 -5 25 5 -3 7 -15 15 -29 19 -26 8 -1549 9 -1586 2z"></path>
<path d="M1475 1635 l-25 -24 0 -334 c0 -323 1 -335 21 -361 l20 -26 300 0
c286 0 300 1 319 20 19 19 20 33 20 365 0 332 -1 346 -20 365 -19 19 -33 20
-315 20 l-296 0 -24 -25z m513 -362 l2 -243 -194 0 -195 0 -3 238 c-2 130 -2
240 0 245 2 4 90 6 195 5 l192 -3 3 -242z"></path>
<path d="M4890 1640 c-19 -19 -20 -33 -20 -365 0 -332 1 -346 20 -365 19 -19
33 -20 319 -20 l300 0 20 26 c20 26 21 38 21 361 l0 334 -25 24 -24 25 -296 0
c-282 0 -296 -1 -315 -20z m514 -365 l-1 -240 -194 0 -194 0 -3 230 c-1 126 0
235 3 243 3 10 47 12 197 10 l193 -3 -1 -240z"></path>
</g>
</svg>