 <svg version="1.0" xmlns="http://www.w3.org/2000/svg" width="700.000000pt" height="700.000000pt" viewBox="0 0 700.000000 700.000000" preserveAspectRatio="xMidYMid meet">
<metadata>
Created by potrace 1.12, written by Peter Selinger 2001-2015
</metadata>
<g transform="translate(0.000000,700.000000) scale(0.100000,-0.100000)" fill="#000000" stroke="none">
<path d="M3440 6033 c-30 -11 -70 -57 -76 -89 -7 -37 15 -87 49 -108 12 -8 72
-19 134 -25 208 -21 375 -57 568 -123 591 -203 1062 -590 1374 -1132 180 -312
294 -677 326 -1046 7 -84 21 -112 66 -136 41 -21 88 -12 121 24 37 39 40 58
28 179 -128 1291 -1159 2324 -2449 2453 -112 11 -119 11 -141 3z"></path>
<path d="M1620 5814 c-258 -88 -480 -301 -575 -554 -198 -527 -33 -1271 453
-2045 390 -620 983 -1227 1599 -1637 892 -594 1754 -772 2289 -473 196 110
358 305 428 517 65 194 8 422 -140 557 -71 64 -793 567 -857 596 -165 76 -314
72 -483 -10 -94 -46 -160 -112 -268 -267 -49 -71 -94 -128 -100 -128 -25 1
-310 219 -516 395 -139 118 -562 541 -682 681 -180 211 -397 495 -398 520 0 6
57 51 128 100 138 96 207 160 249 231 66 113 96 262 75 373 -22 119 -52 175
-219 412 -21 30 -114 164 -208 298 -93 134 -191 267 -216 294 -136 148 -366
206 -559 140z"></path>
<path d="M3361 5354 c-39 -33 -50 -85 -27 -128 25 -47 47 -56 179 -72 873
-107 1534 -766 1641 -1637 8 -70 20 -135 25 -145 17 -32 74 -56 114 -48 56 10
87 54 87 123 0 76 -26 248 -55 363 -152 601 -548 1090 -1100 1360 -214 105
-395 162 -616 194 -159 24 -211 22 -248 -10z"></path>
<path d="M3334 4712 c-62 -39 -70 -129 -15 -175 21 -17 47 -26 93 -31 296 -31
540 -146 744 -350 202 -202 319 -450 349 -739 6 -51 14 -76 32 -97 48 -58 144
-46 178 21 14 27 15 44 6 128 -43 383 -234 722 -546 965 -209 164 -474 268
-735 290 -64 6 -80 4 -106 -12z"></path>
</g>
</svg>